<svg xmlns="http://www.w3.org/2000/svg" width="41" height="41" viewBox="0 0 41 41"><g><g><path fill="#fff" d="M41 20.5C41 31.804 31.805 41 20.5 41S-.001 31.805-.001 20.5 9.196 0 20.499 0c11.305 0 20.502 9.196 20.502 20.5zm-3.166 0c0-9.558-7.776-17.334-17.334-17.334S3.166 10.942 3.166 20.5 10.942 37.834 20.5 37.834 37.834 30.058 37.834 20.5zm-9.445 0c0 4.35-3.54 7.889-7.89 7.889s-7.888-3.54-7.888-7.889c0-4.35 3.539-7.89 7.889-7.89s7.889 3.54 7.889 7.89zm-3.167 0a4.728 4.728 0 0 0-4.722-4.722 4.728 4.728 0 0 0-4.723 4.722 4.728 4.728 0 0 0 4.723 4.722 4.727 4.727 0 0 0 4.722-4.722z"/></g></g></svg>